<?xml version="1.0" encoding="UTF-8"?>
<svg version="1.1" xmlns="http://www.w3.org/2000/svg" width="800" height="600">
<path d="M0 0 C264 0 528 0 800 0 C800 198 800 396 800 600 C536 600 272 600 0 600 C0 402 0 204 0 0 Z " fill="#D7CEDB" transform="translate(0,0)"/>
<path d="M0 0 C1.30937749 -0.0055344 2.61875498 -0.01106879 3.96781057 -0.0167709 C7.56392813 -0.03139356 11.15960192 -0.02142412 14.75570452 -0.00703418 C18.64874165 0.00414761 22.54172014 -0.0078906 26.43475342 -0.01687622 C34.04579147 -0.03076157 41.65666285 -0.02328763 49.26769287 -0.00820064 C58.14198652 0.0087165 67.01623931 0.00544205 75.89054411 0.00170528 C91.73015845 -0.0041646 107.56969314 0.00996441 123.4092865 0.03465271 C138.75925176 0.05857496 154.10911063 0.06565425 169.45909119 0.05516052 C186.19878071 0.04373715 202.93842112 0.04183847 219.67811006 0.05625862 C221.46488503 0.05778436 223.25166 0.05930472 225.03843498 0.06081963 C225.91742688 0.06157744 226.79641878 0.06233525 227.7020468 0.06311603 C233.87967056 0.06784757 240.05727229 0.06601549 246.23489571 0.06175423 C253.76830206 0.0568147 261.30160807 0.06286921 268.83499152 0.08264852 C272.67449683 0.09248287 276.51384974 0.09766761 280.35336304 0.08975601 C284.52404847 0.08133816 288.69433166 0.09635079 292.86499023 0.11352539 C294.06627204 0.10751535 295.26755384 0.1015053 296.50523812 0.09531313 C314.62990754 0.23061852 329.35857878 6.84101312 342.33384705 19.40354919 C347.10331497 24.50698424 350.28197662 30.2706821 353.3690033 36.50120544 C354.2352533 38.20276794 354.2352533 38.20276794 355.1190033 39.93870544 C358.38713965 49.25289405 358.66235766 58.9022865 358.63642883 68.68132019 C358.64095995 69.95435257 358.64549106 71.22738495 358.65015948 72.53899407 C358.66228505 76.03830976 358.6621415 79.5375291 358.65977073 83.03686094 C358.65935989 86.82432719 358.67042685 90.61176362 358.67988586 94.3992157 C358.69643882 101.80647193 358.7019928 109.21369631 358.70311062 116.6209695 C358.70406371 122.64648496 358.70818697 128.67198998 358.71451187 134.69750214 C358.73210787 151.81086791 358.74135319 168.92420868 358.73985092 186.03758356 C358.73977101 186.95853777 358.7396911 187.87949197 358.73960876 188.82835388 C358.739527 189.75044271 358.73944524 190.67253153 358.739361 191.62256244 C358.73854833 206.56164301 358.7576856 221.50062271 358.7858855 236.43967411 C358.81466561 251.80830709 358.82842301 267.17689095 358.82669795 282.54555154 C358.82603587 291.16213767 358.83144817 299.77861801 358.85305405 308.39517975 C358.87133337 315.73160563 358.875558 323.06787775 358.8620352 330.40431663 C358.8555397 334.14108157 358.85526313 337.87755206 358.8727417 341.61428833 C358.97310614 364.5228777 358.4756716 385.75373425 341.64634705 403.25511169 C340.89482361 403.99632263 340.14330017 404.73753357 339.3690033 405.50120544 C338.73091736 406.14960388 338.09283142 406.79800232 337.43540955 407.46604919 C320.32842333 423.71946438 297.3378723 423.10026758 275.35442626 423.00944507 C271.56772484 422.99822687 267.78108233 423.01031328 263.99438477 423.01928711 C256.5973153 423.03314814 249.20041771 423.02571674 241.80335658 423.01061153 C233.17249221 422.99366443 224.54166961 422.99697258 215.91079373 423.00070561 C200.50221643 423.00657103 185.0937211 422.99246408 169.68516541 422.96775818 C154.76423573 422.94383714 139.84341551 422.93675726 124.92247009 422.94725037 C108.63759215 422.95868229 92.35276472 422.96056192 76.06788737 422.94615227 C74.32856882 422.94462658 72.58925027 422.94310622 70.84993172 422.94159126 C69.56657384 422.94045454 69.56657384 422.94045454 68.25728954 422.93929486 C62.25386464 422.93456991 56.25046243 422.93639068 50.24703789 422.94065666 C42.92276238 422.94560406 35.59858996 422.93950703 28.27433794 422.91976237 C24.5438032 422.9099504 20.81342478 422.90471856 17.08288193 422.91265488 C-7.42708554 422.95925774 -28.58975853 422.34176027 -47.12709045 404.32933044 C-56.88073802 393.31273007 -63.73740155 379.90366033 -63.76521778 364.92472076 C-63.76967562 363.80809602 -63.77413347 362.69147128 -63.7787264 361.54100943 C-63.77854204 360.31933774 -63.77835767 359.09766604 -63.77816772 357.838974 C-63.78184441 356.53713748 -63.7855211 355.23530095 -63.7893092 353.89401484 C-63.79930914 350.28190439 -63.80304277 346.66981056 -63.80569851 343.05768824 C-63.80960757 339.16109673 -63.81918553 335.26451831 -63.82791138 331.36793518 C-63.8476595 321.95793824 -63.85774021 312.54794025 -63.86663917 303.13792777 C-63.87102504 298.70354375 -63.8763911 294.26916092 -63.88162804 289.83477783 C-63.89863917 275.08840432 -63.91313231 260.34203154 -63.92037678 245.59564972 C-63.92228659 241.77022297 -63.92420693 237.94479623 -63.92616272 234.11936951 C-63.92664646 233.16861032 -63.9271302 232.21785114 -63.9276286 231.23828107 C-63.93592506 215.84407803 -63.961256 200.44995278 -63.9937434 185.05578369 C-64.02684548 169.24103752 -64.04482841 153.42633084 -64.04802102 137.61154985 C-64.05018327 128.73617254 -64.05889008 119.86090867 -64.08448219 110.98556519 C-64.10623231 103.42528043 -64.11421849 95.86513667 -64.10451541 88.30482417 C-64.09998306 84.45101156 -64.10179427 80.59748959 -64.12127686 76.74371719 C-64.14226688 72.55537771 -64.13188363 68.36767748 -64.1187439 64.17930603 C-64.12971314 62.97548011 -64.14068239 61.7716542 -64.15198404 60.53134871 C-64.01013302 41.72751883 -55.87200617 27.74221491 -42.88490295 14.75511169 C-31.01670627 3.79766392 -15.76222939 -0.12626344 0 0 Z " fill="#FEFEFE" transform="translate(253.63099670410156,78.49879455566406)"/>
<path d="M0 0 C1.31055359 -0.00997513 2.62110718 -0.01995026 3.97137451 -0.03022766 C5.41706836 -0.0311234 6.86276237 -0.031787 8.30845642 -0.03224182 C9.83650618 -0.03986659 11.36455211 -0.04829464 12.89259338 -0.0574646 C17.03967242 -0.07939273 21.18667772 -0.08820691 25.33380818 -0.09329104 C27.92883056 -0.09693842 30.52383375 -0.10318064 33.1188488 -0.11029243 C42.18417582 -0.13478684 51.24944567 -0.14783757 60.31480408 -0.15138245 C68.74393313 -0.15501159 77.1726967 -0.18486223 85.60171419 -0.22678703 C92.85291054 -0.26157942 100.10398638 -0.27693248 107.35526556 -0.27762848 C111.67948178 -0.27841864 116.00332607 -0.2870353 120.32745552 -0.31562614 C124.4012794 -0.34195881 128.47442715 -0.34392835 132.54829788 -0.3279705 C134.03489225 -0.32616765 135.52152683 -0.33274041 137.00803566 -0.34878922 C149.22383468 -0.47252096 159.70431667 1.68082744 168.77305603 10.39134216 C177.34218508 19.6314321 180.30047811 27.80263835 179.87461853 40.35227966 C178.95928159 50.45116192 173.75320409 58.61649593 166.58555603 65.59837341 C159.86753955 71.04644349 152.6879664 73.38026231 144.17201233 73.44151306 C142.21257942 73.45874924 142.21257942 73.45874924 140.21356201 73.47633362 C138.76741105 73.48395835 137.32125928 73.49143001 135.87510681 73.49876404 C134.35045127 73.50994376 132.82579815 73.52145722 131.30114746 73.53327942 C126.29312037 73.56980609 121.28506839 73.59506215 116.27696228 73.61790466 C115.4232509 73.62185053 114.56953952 73.62579639 113.6899581 73.62986183 C105.6284002 73.66629352 97.56683335 73.69771782 89.50522041 73.71897125 C79.2190303 73.74649554 68.93353338 73.79716413 58.64763176 73.87944555 C51.40238882 73.93542342 44.15733279 73.96423441 36.91188133 73.97344446 C32.59186036 73.97967456 28.2726525 73.99754885 23.95286942 74.04483032 C19.8797332 74.08885833 15.80784459 74.09887611 11.73451042 74.08420181 C10.25033106 74.08452749 8.76609372 74.09656832 7.2821331 74.12205124 C-5.07861166 74.32287629 -15.18528327 71.3455687 -24.54335022 62.89915466 C-32.30362854 54.15904322 -35.06856432 44.45620451 -34.84803772 32.90306091 C-33.77889527 22.33674887 -28.31727693 14.20735687 -20.48085022 7.27415466 C-17.59570136 5.2835893 -14.68861256 3.67901408 -11.48085022 2.27415466 C-10.74536736 1.93047317 -10.00988451 1.58679167 -9.2521143 1.23269558 C-6.01794425 0.11404206 -3.42119119 0.0139861 0 0 Z " fill="#C766E9" transform="translate(395.48085021972656,159.72584533691406)"/>
<path d="M0 0 C11.62422058 8.93765601 20.62138561 20.83490742 23.8359375 35.42578125 C24.06257645 37.31538348 24.22037046 39.21364811 24.3359375 41.11328125 C24.3875 41.78697754 24.4390625 42.46067383 24.4921875 43.15478516 C25.64596651 59.83770854 22.07330367 74.01830723 11.3359375 87.11328125 C10.5934375 88.14453125 9.8509375 89.17578125 9.0859375 90.23828125 C-3.16402464 103.04505985 -19.01092673 108.94161937 -36.4140625 109.36328125 C-53.58669992 109.18020409 -67.22525247 101.83363067 -79.59375 90.31640625 C-91.05455079 78.39717343 -96.28491457 61.03252918 -95.96875 44.8203125 C-94.63195373 28.55595783 -87.5221248 14.66300405 -75.7109375 3.5859375 C-53.49789695 -14.44079925 -23.59774913 -16.7121889 0 0 Z " fill="#B772E2" transform="translate(318.6640625,147.88671875)"/>
<path d="M0 0 C0.7943636 -0.00453111 1.5887272 -0.00906223 2.40716243 -0.01373065 C5.06005519 -0.02635695 7.7127422 -0.02475542 10.36566162 -0.02310181 C12.27148196 -0.02908821 14.17729988 -0.03589402 16.08311462 -0.04345703 C21.25476642 -0.0611141 26.42635202 -0.06581233 31.59803104 -0.0670886 C34.83142089 -0.06851108 38.06479395 -0.07278253 41.29817963 -0.07808304 C52.58517015 -0.09658328 63.87211347 -0.10475377 75.15911865 -0.10317993 C85.66895557 -0.10197896 96.17858697 -0.12307262 106.6883719 -0.15466726 C115.72043135 -0.18084886 124.75242377 -0.19154641 133.78452086 -0.19026911 C139.17498612 -0.18975998 144.56526876 -0.19541627 149.95569611 -0.21662521 C155.02831588 -0.23603891 160.10057946 -0.23611056 165.17321205 -0.22159195 C167.02991318 -0.21950655 168.88663678 -0.22418862 170.74329948 -0.23631287 C191.20073966 -0.36119852 191.20073966 -0.36119852 199.38031006 6.23226929 C199.89593506 6.88324585 200.41156006 7.53422241 200.94281006 8.20492554 C201.74718506 9.17752319 201.74718506 9.17752319 202.56781006 10.16976929 C206.3691196 15.96892618 206.68484214 21.50351771 205.94281006 28.26742554 C204.13633556 34.84162069 199.55329475 39.57369006 193.94281006 43.26742554 C189.20386275 45.20240712 184.8885064 45.55394604 179.834198 45.52812195 C179.03433971 45.5319475 178.23448143 45.53577304 177.41038501 45.53971452 C174.73899697 45.55000615 172.0678254 45.54605968 169.39642334 45.54208374 C167.47750653 45.54643235 165.55859145 45.551616 163.63967896 45.55757141 C158.433032 45.57095698 153.22645766 45.57154053 148.01979685 45.56900811 C143.67091948 45.56793804 139.32205678 45.57282272 134.97318256 45.57761353 C124.7119079 45.58870732 114.45066985 45.58914692 104.18939209 45.58309937 C93.6091127 45.5770596 83.0289663 45.58937099 72.44870961 45.61066943 C63.35978286 45.62829197 54.27089842 45.63428573 45.18195522 45.63103169 C39.75581997 45.62921965 34.32977958 45.6318472 28.90365982 45.64574623 C23.79990118 45.65833041 18.69634964 45.65637479 13.59259415 45.64333534 C11.72215708 45.64097126 9.85170541 45.6436982 7.9812851 45.65195847 C5.42241408 45.66244202 2.86423594 45.65431256 0.3053894 45.64164734 C-0.79745622 45.65270877 -0.79745622 45.65270877 -1.92258155 45.66399366 C-8.21796744 45.59871353 -13.26357771 43.89161869 -18.74468994 40.70492554 C-23.84902525 35.32468021 -26.35890443 29.50299893 -26.61968994 22.07992554 C-26.23687533 14.40400185 -23.6927645 10.60657378 -18.18218994 5.45492554 C-12.75205912 0.65134827 -7.04404495 -0.02970555 0 0 Z " fill="#F681AC" transform="translate(369.05718994140625,377.7325744628906)"/>
<path d="M0 0 C0.80813454 -0.00438225 1.61626907 -0.00876451 2.44889253 -0.01327956 C5.16632437 -0.02667127 7.88372378 -0.03284732 10.60118103 -0.03897095 C12.54596605 -0.04687176 14.49074961 -0.0551407 16.43553162 -0.06375122 C22.83179829 -0.08997865 29.22807152 -0.10528184 35.62437439 -0.11953735 C37.8266443 -0.12489716 40.02891418 -0.13027467 42.23118401 -0.13566971 C51.39382516 -0.15730149 60.55646456 -0.17603712 69.71912479 -0.1872921 C82.84641838 -0.20352319 95.97341558 -0.23667737 109.10059744 -0.29369295 C118.33216036 -0.33241956 127.56364411 -0.35192816 136.79528612 -0.35721266 C142.30770035 -0.360863 147.81979851 -0.37285051 153.33212471 -0.4053154 C158.5221071 -0.43544283 163.71158298 -0.44169102 168.90163422 -0.42993164 C170.80188576 -0.42971128 172.70216112 -0.43798484 174.60233116 -0.45558548 C193.89018921 -0.62445126 193.89018921 -0.62445126 201.15171814 5.15390015 C206.68364627 11.14415334 208.57510358 16.00459726 208.49937439 24.16171265 C207.79117312 30.25701795 205.02227584 35.23411725 200.77671814 39.59140015 C194.67340716 43.22432335 189.91627358 44.59865171 182.80895996 44.5415802 C181.99599659 44.54696574 181.18303323 44.55235128 180.34543461 44.55790001 C177.63560519 44.57214756 174.92626648 44.56508387 172.21641541 44.55795288 C170.26779285 44.56365811 168.31917365 44.57062297 166.37055969 44.57875061 C161.08749942 44.59667989 155.80460526 44.59551407 150.52152371 44.58980823 C146.10797142 44.58671613 141.69445103 44.59280905 137.28090328 44.59884697 C126.86761597 44.61288976 116.4544107 44.61133286 106.04112244 44.59994507 C95.30456961 44.5884631 84.56826655 44.6025415 73.83174664 44.62934154 C64.60691049 44.65150455 55.38215271 44.65813458 46.15729183 44.65226513 C40.65066384 44.64889593 35.14419597 44.65130837 29.63759041 44.66851616 C24.45906987 44.68399275 19.28091914 44.68002163 14.10241318 44.66121101 C12.20456322 44.65752718 10.30668582 44.66062759 8.40886116 44.6710968 C5.81263632 44.68432263 3.21763293 44.67274566 0.62145996 44.65510559 C-0.12476118 44.6647106 -0.87098232 44.6743156 -1.63981622 44.68421167 C-7.94611961 44.59639774 -13.08132837 42.54159939 -17.87171936 38.4078064 C-18.31773499 37.84964233 -18.76375061 37.29147827 -19.22328186 36.71640015 C-19.68476624 36.16081421 -20.14625061 35.60522827 -20.62171936 35.0328064 C-24.66542519 28.83846721 -24.67390814 22.33250334 -23.84828186 15.15390015 C-21.60913373 8.71765111 -16.5497007 4.60099229 -10.84828186 1.15390015 C-7.18628049 -0.06676698 -3.81335861 0.00250169 0 0 Z " fill="#7CB5DB" transform="translate(366.84828186035156,292.8460998535156)"/>
<path d="M0 0 C6.97836441 4.91856096 11.06065362 10.16035797 13.18359375 18.5390625 C14.39111831 26.54358095 12.36149081 33.5862196 8.015625 40.359375 C4.15519401 45.33171006 -0.88584062 48.59257797 -6.81640625 50.5390625 C-14.81105021 51.34703184 -23.01956932 51.83746519 -29.921875 47.15234375 C-36.7885923 41.30501541 -41.12897256 35.55603827 -42.1640625 26.49609375 C-42.5668673 17.68602969 -40.92752042 11.08881019 -34.94921875 4.47265625 C-25.11877706 -4.68839739 -11.97921112 -7.04196647 0 0 Z " fill="#7DB5DB" transform="translate(297.81640625,291.4609375)"/>
<path d="M0 0 C3.45201639 1.47721422 5.64961936 3.43794001 8.25 6.125 C8.95640625 6.84945312 9.6628125 7.57390625 10.390625 8.3203125 C11.18726563 9.15175781 11.18726563 9.15175781 12 10 C10.52513359 15.25606755 7.14049106 18.16260106 3.3125 21.8125 C2.03330537 23.05930176 0.75594048 24.30798374 -0.51953125 25.55859375 C-1.12748535 26.15397949 -1.73543945 26.74936523 -2.36181641 27.36279297 C-4.86161665 29.86110302 -7.14749494 32.51588599 -9.4296875 35.2109375 C-11.82947087 37.94501906 -14.44409678 40.45263272 -17.03515625 43.00390625 C-18.92230744 44.92107177 -20.68685375 46.89575322 -22.4375 48.9375 C-25.81597268 52.87775104 -29.46088776 56.49923657 -33.1796875 60.1171875 C-35.06383898 61.87753339 -35.06383898 61.87753339 -36 64 C-36.66 64 -37.32 64 -38 64 C-38.268125 64.598125 -38.53625 65.19625 -38.8125 65.8125 C-39.98493467 67.97224808 -41.19369282 69.35790256 -43 71 C-46.10699073 69.64738766 -47.87539092 68.24756433 -50 65.625 C-53.15789504 61.88180544 -56.51454091 58.43264094 -60 55 C-63.97642345 51.07381022 -67.77413349 47.08232962 -71.3984375 42.82421875 C-74.11275711 39.73254251 -77.05209608 36.86726218 -80 34 C-78.49650623 30.33213607 -76.36271208 28.31089607 -73.375 25.75 C-72.55773437 25.04359375 -71.74046875 24.3371875 -70.8984375 23.609375 C-70.27195313 23.07828125 -69.64546875 22.5471875 -69 22 C-62.8892727 27.02771354 -57.64141254 32.56807096 -52.34179688 38.4296875 C-51.70951172 39.11804688 -51.07722656 39.80640625 -50.42578125 40.515625 C-49.86286377 41.13727539 -49.29994629 41.75892578 -48.7199707 42.39941406 C-46.92202714 44.07256069 -45.23969266 45.01900543 -43 46 C-33.48423296 36.64821907 -33.48423296 36.64821907 -24.5390625 26.7578125 C-22.39344937 24.30723913 -20.06874586 22.05861231 -17.74609375 19.77734375 C-15.93522357 17.93406426 -14.24678646 16.02177201 -12.5625 14.0625 C-9.4179254 10.40452546 -6.06454594 7.0200812 -2.6015625 3.6640625 C-0.91371276 2.07577267 -0.91371276 2.07577267 0 0 Z " fill="#FDFBFE" transform="translate(317,165)"/>
<path d="M0 0 C6.93803799 3.5677811 11.57924291 7.72702802 14.125 15.25 C15.01583833 21.8920906 15.52290978 28.83438344 12.0625 34.8125 C7.07680096 41.27284242 0.88358399 46.45142903 -7.41015625 47.6015625 C-14.5367168 47.98244759 -20.08342767 46.46942923 -25.875 42.25 C-31.5229613 36.45002318 -34.15908431 30.62200724 -34.3125 22.5 C-34.19529512 15.90894911 -33.19376721 11.30586449 -28.875 6.25 C-20.63243242 -1.44417095 -10.77357351 -4.57606634 0 0 Z " fill="#F577A5" transform="translate(292.875,375.75)"/>
</svg>
